<svg width="63" height="62" viewBox="0 0 63 62" fill="none" xmlns="http://www.w3.org/2000/svg">
<path d="M16.5826 45.6839C16.5826 45.6839 31.5705 43.6593 37.9686 37.366C44.3668 31.0727 46.4207 16.3194 46.4207 16.3194C46.4207 16.3194 31.4295 18.3439 25.0346 24.6373C18.6398 30.9306 16.5826 45.6839 16.5826 45.6839V45.6839ZM28.2731 27.8178C30.957 25.1765 36.0984 23.2972 40.5082 22.1283C39.3237 26.4616 37.4076 31.557 34.7335 34.1789C32.9519 35.9388 30.0547 35.9388 28.2731 34.1789C26.4849 32.4256 26.4849 29.5776 28.2731 27.8178V27.8178ZM31.5016 0C14.1021 0 0 13.8782 0 30.9984C0 48.1218 14.1021 62 31.5016 62C48.8946 62 63 48.1218 63 30.9984C63 13.875 48.8946 0 31.5016 0V0ZM31.4984 55.5388C17.7277 55.5388 6.56216 44.5537 6.56216 30.9984C6.56216 17.4463 17.7244 6.458 31.4984 6.458C45.269 6.458 56.4378 17.4431 56.4378 30.9984C56.4378 44.5505 45.269 55.5388 31.4984 55.5388Z" fill="url(#paint0_linear_517_152)"/>
<defs>
<linearGradient id="paint0_linear_517_152" x1="2.86034e-07" y1="30.9995" x2="63" y2="30.9995" gradientUnits="userSpaceOnUse">
<stop offset="0.0364583" stop-color="#C3956A"/>
<stop offset="1" stop-color="#A24F03"/>
</linearGradient>
</defs>
</svg>
