<svg width="63" height="62" viewBox="0 0 63 62" fill="none" xmlns="http://www.w3.org/2000/svg">
<path d="M62.676 56.1162L58.1264 43.4H53.1341L55.9065 55.8H7.09529L9.86767 43.4H4.87539L0.32243 56.1162C-0.832451 59.3526 1.21438 62 4.87539 62H58.1264C61.7874 62 63.8342 59.3526 62.676 56.1162ZM48.1418 15.5C48.1418 6.9409 40.6933 0 31.5009 0C22.3084 0 14.86 6.9409 14.86 15.5C14.86 30.3025 31.5009 46.5 31.5009 46.5C31.5009 46.5 48.1418 30.3025 48.1418 15.5ZM22.5148 15.686C22.5148 11.0639 26.5352 7.3191 31.5009 7.3191C36.4665 7.3191 40.487 11.0639 40.487 15.686C40.487 20.3112 36.4632 24.056 31.5009 24.056C26.5386 24.056 22.5148 20.3081 22.5148 15.686Z" fill="url(#paint0_linear_517_156)"/>
<defs>
<linearGradient id="paint0_linear_517_156" x1="2.86034e-07" y1="30.9995" x2="63" y2="30.9995" gradientUnits="userSpaceOnUse">
<stop offset="0.0364583" stop-color="#C3956A"/>
<stop offset="1" stop-color="#A24F03"/>
</linearGradient>
</defs>
</svg>
