<svg width="63" height="62" viewBox="0 0 63 62" fill="none" xmlns="http://www.w3.org/2000/svg">
<path d="M62.3668 14.3461L54.8856 8.04278C54.4603 7.72244 53.865 7.43656 53.2444 7.22644C52.6207 7.01633 51.975 6.88889 51.4584 6.88889H29.925L32.4481 24.1111H51.4584C51.975 24.1111 52.6208 23.9837 53.2413 23.7736C53.8619 23.5634 54.4604 23.2741 54.8825 22.9607L62.3637 16.6504C62.7889 16.337 63 15.9202 63 15.5C63 15.0798 62.7889 14.663 62.3668 14.3461ZM26.775 0H23.625C22.7556 0 22.05 0.771556 22.05 1.72222V13.7778H11.5416C11.0187 13.7778 10.3761 13.9052 9.75555 14.1188C9.13185 14.3254 8.5365 14.6113 8.1144 14.9317L0.63315 21.235C0.2079 21.5484 0 21.9687 0 22.3889C0 22.8091 0.2079 23.2224 0.63315 23.5428L8.1144 29.853C8.5365 30.1664 9.13185 30.4558 9.75555 30.6624C10.3792 30.8691 11.0187 31 11.5416 31H22.05V60.2778C22.05 61.2284 22.7556 62 23.625 62H26.775C27.6444 62 28.35 61.2284 28.35 60.2778V1.72222C28.35 0.771556 27.6444 0 26.775 0Z" fill="url(#paint0_linear_517_150)"/>
<defs>
<linearGradient id="paint0_linear_517_150" x1="2.86034e-07" y1="30.9995" x2="63" y2="30.9995" gradientUnits="userSpaceOnUse">
<stop offset="0.0364583" stop-color="#C3956A"/>
<stop offset="1" stop-color="#A24F03"/>
</linearGradient>
</defs>
</svg>
